<?xml version="1.0" encoding="UTF-8"?>
<!DOCTYPE svg PUBLIC "-//W3C//DTD SVG 1.1//EN" "http://www.w3.org/Graphics/SVG/1.1/DTD/svg11.dtd">
<svg xmlns="http://www.w3.org/2000/svg" version="1.1" width="3410px" height="3337px" style="shape-rendering:geometricPrecision; text-rendering:geometricPrecision; image-rendering:optimizeQuality; fill-rule:evenodd; clip-rule:evenodd" xmlns:xlink="http://www.w3.org/1999/xlink">
<g><path style="opacity:0.993" fill="#18328f" d="M 1646.5,-0.5 C 1675.83,-0.5 1705.17,-0.5 1734.5,-0.5C 1936.96,9.44718 2113.3,81.6138 2263.5,216C 2349.52,292.658 2418.02,382.492 2469,485.5C 2487.97,526.104 2504.14,567.771 2517.5,610.5C 2740.69,600.613 2937.02,667.446 3106.5,811C 3295.21,974.593 3396.21,1181.76 3409.5,1432.5C 3409.5,1456.17 3409.5,1479.83 3409.5,1503.5C 3398.17,1735.62 3308.83,1931.45 3141.5,2091C 3106.06,2124.78 3069.73,2157.44 3032.5,2189C 3058.03,2260.31 3073.19,2333.81 3078,2409.5C 3096.82,2704.57 2994.32,2947.4 2770.5,3138C 2624.8,3261.1 2456.13,3327.26 2264.5,3336.5C 2235.5,3336.5 2206.5,3336.5 2177.5,3336.5C 1997.84,3328.18 1836.51,3270.18 1693.5,3162.5C 1553.73,3270.88 1395.07,3328.88 1217.5,3336.5C 1188.5,3336.5 1159.5,3336.5 1130.5,3336.5C 920.107,3326.59 738.773,3249.75 586.5,3106C 513.73,3038.5 453.896,2961.34 407,2874.5C 356.189,2776.6 326.523,2672.6 318,2562.5C 312.22,2490.69 313.553,2419.02 322,2347.5C 330.253,2284.32 346.086,2223.15 369.5,2164C 343.309,2145.48 317.975,2125.81 293.5,2105C 241.221,2057.41 194.054,2005.57 152,1949.5C 57.5099,1817.21 6.67653,1669.54 -0.5,1506.5C -0.5,1471.5 -0.5,1436.5 -0.5,1401.5C 9.99306,1197.71 84.1597,1021.38 222,872.5C 396.285,685.326 612.119,592.493 869.5,594C 903.79,486.869 957.29,391.036 1030,306.5C 1101.82,222.254 1185.65,153.088 1281.5,99C 1395.67,38.2081 1517.34,5.04141 1646.5,-0.5 Z"/></g>
<g><path style="opacity:1" fill="#fefffe" d="M 1659.5,45.5 C 1931.81,39.6031 2154.31,140.936 2327,349.5C 2398.36,436.879 2448.69,535.545 2478,645.5C 2483.69,652.764 2491.19,656.43 2500.5,656.5C 2755.62,643.22 2970.78,728.553 3146,912.5C 3305.97,1086.04 3377.64,1291.38 3361,1528.5C 3344.76,1733.44 3263.6,1907.27 3117.5,2050C 3075.39,2088.45 3032.39,2125.79 2988.5,2162C 2985.31,2166.26 2983.47,2171.1 2983,2176.5C 2982.33,2179.83 2982.33,2183.17 2983,2186.5C 3013.12,2266.77 3029.79,2349.77 3033,2435.5C 3043.96,2691.96 2955.46,2906.46 2767.5,3079C 2597.44,3232.92 2397.11,3302.92 2166.5,3289C 1994.71,3279.04 1842.04,3220.71 1708.5,3114C 1699.82,3107.79 1690.82,3107.12 1681.5,3112C 1592.39,3187.06 1490.72,3238.73 1376.5,3267C 1233.67,3300.06 1091.33,3298.06 949.5,3261C 825.165,3225.36 716.165,3163.7 622.5,3076C 548.942,3008.48 489.109,2930.64 443,2842.5C 385.685,2725.56 358.519,2601.9 361.5,2471.5C 358.693,2364.37 378.526,2261.71 421,2163.5C 423.722,2153.23 421.222,2144.39 413.5,2137C 314.245,2070.41 231.745,1987.25 166,1887.5C 90.2844,1767.69 50.2844,1636.69 46,1494.5C 34.8028,1228.89 128.636,1009.06 327.5,835C 467.509,715.292 630.176,650.958 815.5,642C 841.835,641.382 868.168,640.715 894.5,640C 901.974,637.86 906.807,633.026 909,625.5C 945.085,504.265 1006.08,397.931 1092,306.5C 1244.97,142.064 1434.14,55.064 1659.5,45.5 Z"/></g>
<g><path style="opacity:0.999" fill="#18328f" d="M 1659.5,135.5 C 1881.77,128.377 2068.61,205.377 2220,366.5C 2302.43,454.639 2360.1,557.305 2393,674.5C 2407.17,707.01 2431,729.176 2464.5,741C 2472.36,743.306 2480.36,744.973 2488.5,746C 2740.78,730.273 2947.95,818.44 3110,1010.5C 3218.31,1143.07 3272.14,1295.57 3271.5,1468C 3270.66,1679.94 3193,1857.61 3038.5,2001C 3003.63,2033.54 2967.3,2064.21 2929.5,2093C 2907,2113.84 2894.5,2139.68 2892,2170.5C 2891.18,2179.88 2891.52,2189.21 2893,2198.5C 2899.26,2219.27 2905.92,2239.94 2913,2260.5C 2943.59,2366.45 2951.59,2474.12 2937,2583.5C 2915.8,2732.22 2853.8,2860.56 2751,2968.5C 2580.5,3147.57 2371.67,3223.07 2124.5,3195C 2015.96,3182.04 1915.96,3146.04 1824.5,3087C 1798.89,3069.05 1773.55,3050.72 1748.5,3032C 1725.98,3019.36 1701.98,3015.36 1676.5,3020C 1658.01,3022.94 1641.01,3029.61 1625.5,3040C 1494.63,3147.94 1343.8,3201.44 1173,3200.5C 980.378,3200.88 814.878,3135.04 676.5,3003C 515.36,2850.37 439.86,2662.54 450,2439.5C 453.787,2353.69 471.787,2271.03 504,2191.5C 515.782,2154.09 510.782,2119.09 489,2086.5C 485.201,2081.7 481.034,2077.2 476.5,2073C 413.601,2029.79 356.434,1979.63 305,1922.5C 198.273,1799.6 141.273,1656.27 134,1492.5C 125.138,1232.77 223.305,1024.6 428.5,868C 538.506,787.653 661.84,742.653 798.5,733C 833.502,732.018 868.502,731.018 903.5,730C 941.351,723.464 969.851,703.631 989,670.5C 997.527,645.918 1005.86,621.252 1014,596.5C 1052.91,494.617 1112.08,406.45 1191.5,332C 1322.64,208.633 1478.64,143.133 1659.5,135.5 Z"/></g>
<g><path style="opacity:1" fill="#fefffe" d="M 1692.5,777.5 C 1998.64,769.551 2254.48,877.884 2460,1102.5C 2639.62,1300.27 2724.62,1533.6 2715,1802.5C 2706.9,2041.31 2623.23,2248.64 2464,2424.5C 2238.96,2670.17 1959.46,2779.01 1625.5,2751C 1403.55,2728.66 1212.22,2641.33 1051.5,2489C 829.966,2279.24 726.133,2021.07 740,1714.5C 749.769,1487.12 829.102,1288.45 978,1118.5C 1060.06,1024.39 1155.56,947.556 1264.5,888C 1398.71,818.281 1541.38,781.448 1692.5,777.5 Z"/></g>
<g><path style="opacity:0.993" fill="#18328f" d="M 1695.5,860.5 C 1977.48,854.143 2212.65,954.81 2401,1162.5C 2566.29,1348.34 2642.29,1566.34 2629,1816.5C 2617.59,2038.94 2534.92,2229.61 2381,2388.5C 2185.73,2592.63 1946.23,2686.13 1662.5,2669C 1453.56,2655.65 1272.56,2578.65 1119.5,2438C 909.896,2245.16 811.062,2005.66 823,1719.5C 833.211,1504.37 909.878,1317.37 1053,1158.5C 1224.72,969.244 1438.89,869.91 1695.5,860.5 Z"/></g>
<g><path style="opacity:1" fill="#fefffe" d="M 1723.5,906.5 C 1952.26,906.318 2149.26,984.151 2314.5,1140C 2514.03,1332.16 2602.7,1567.16 2580.5,1845C 2564.04,2039.36 2489.2,2206.86 2356,2347.5C 2163.09,2553.29 1925.25,2644.45 1642.5,2621C 1460.97,2605.19 1302.3,2537.52 1166.5,2418C 1112.59,2369.77 1064.09,2316.94 1021,2259.5C 916.241,2112.02 865.407,1947.35 868.5,1765.5C 866.781,1536.43 944.281,1339.43 1101,1174.5C 1269.96,997.308 1477.46,907.975 1723.5,906.5 Z"/></g>
<g><path style="opacity:0.992" fill="#fa0e0b" d="M 1206.5,1128.5 C 1341.21,1128.01 1475.88,1128.51 1610.5,1130C 1634.21,1138.73 1642.04,1155.23 1634,1179.5C 1629.84,1188.99 1622.67,1194.83 1612.5,1197C 1552.5,1197.5 1492.5,1197.67 1432.5,1197.5C 1432.5,1276.83 1432.5,1356.17 1432.5,1435.5C 1485.17,1435.5 1537.83,1435.5 1590.5,1435.5C 1590.33,1417.16 1590.5,1398.83 1591,1380.5C 1596.6,1363.73 1608.1,1354.06 1625.5,1351.5C 1642.55,1353.27 1653.72,1362.27 1659,1378.5C 1659.67,1411.5 1659.67,1444.5 1659,1477.5C 1656.86,1491.98 1648.69,1500.82 1634.5,1504C 1567.17,1504.5 1499.83,1504.67 1432.5,1504.5C 1432.5,1564.83 1432.5,1625.17 1432.5,1685.5C 1491.17,1685.33 1549.83,1685.5 1608.5,1686C 1634.08,1692.66 1643.58,1708.83 1637,1734.5C 1632.79,1745.38 1624.96,1751.88 1613.5,1754C 1471.5,1754.67 1329.5,1754.67 1187.5,1754C 1176.63,1751.47 1169.13,1744.97 1165,1734.5C 1163.94,1729.9 1163.27,1725.23 1163,1720.5C 1162.33,1620.17 1162.33,1519.83 1163,1419.5C 1164.27,1403.55 1172.43,1392.72 1187.5,1387C 1204.11,1383.55 1216.94,1389.05 1226,1403.5C 1228.79,1408.53 1230.79,1413.87 1232,1419.5C 1232.5,1508.17 1232.67,1596.83 1232.5,1685.5C 1276.83,1685.5 1321.17,1685.5 1365.5,1685.5C 1365.5,1522.83 1365.5,1360.17 1365.5,1197.5C 1309.12,1197.98 1252.79,1197.48 1196.5,1196C 1180.89,1187.95 1174.39,1175.12 1177,1157.5C 1181.03,1141.91 1190.87,1132.24 1206.5,1128.5 Z"/></g>
<g><path style="opacity:0.991" fill="#fa0e0b" d="M 1782.5,1128.5 C 1926.83,1128.33 2071.17,1128.5 2215.5,1129C 2241.09,1135.67 2250.59,1151.84 2244,1177.5C 2239.9,1187.94 2232.4,1194.44 2221.5,1197C 2087.83,1197.5 1954.17,1197.67 1820.5,1197.5C 1820.5,1239.17 1820.5,1280.83 1820.5,1322.5C 1966.17,1322.33 2111.83,1322.5 2257.5,1323C 2271.24,1326.45 2280.08,1334.95 2284,1348.5C 2284.46,1411.3 2276.12,1472.96 2259,1533.5C 2254.06,1541.94 2250.06,1550.94 2247,1560.5C 2233.72,1590.6 2214.88,1616.6 2190.5,1638.5C 2216.11,1667.62 2242.28,1696.28 2269,1724.5C 2275.08,1733.97 2277.08,1744.31 2275,1755.5C 2269.72,1772.26 2258.22,1780.26 2240.5,1779.5C 2228.96,1780.31 2219.46,1776.31 2212,1767.5C 2187.35,1740.35 2162.19,1713.69 2136.5,1687.5C 2104.08,1709.54 2068.75,1725.37 2030.5,1735C 1982.88,1746.8 1934.55,1753.47 1885.5,1755C 1847.48,1756.92 1809.48,1756.59 1771.5,1754C 1750.86,1747.04 1742.36,1732.88 1746,1711.5C 1752.29,1692.89 1765.29,1684.22 1785,1685.5C 1845.15,1688.17 1904.98,1685.01 1964.5,1676C 2008.24,1669.75 2049.24,1655.75 2087.5,1634C 2059.53,1603.03 2031.2,1572.37 2002.5,1542C 1945.52,1540.41 1888.52,1539.41 1831.5,1539C 1804.87,1542.02 1789.54,1530.36 1785.5,1504C 1788.59,1488.24 1797.59,1477.24 1812.5,1471C 1817.77,1469.95 1823.1,1469.45 1828.5,1469.5C 1895.18,1470.33 1961.85,1471.5 2028.5,1473C 2032.78,1474.47 2036.78,1476.47 2040.5,1479C 2074.67,1515.17 2108.83,1551.33 2143,1587.5C 2153.97,1577.88 2163.31,1566.88 2171,1554.5C 2178.46,1541.91 2185.13,1528.91 2191,1515.5C 2201.79,1474.73 2209.29,1433.4 2213.5,1391.5C 2069.83,1391.67 1926.17,1391.5 1782.5,1391C 1771.16,1389.91 1762.66,1384.41 1757,1374.5C 1754.34,1370.19 1752.67,1365.52 1752,1360.5C 1751.33,1293.5 1751.33,1226.5 1752,1159.5C 1754.86,1149.63 1760.36,1141.47 1768.5,1135C 1772.88,1131.97 1777.54,1129.81 1782.5,1128.5 Z"/></g>
<g><path style="opacity:0.992" fill="#fb0e0b" d="M 1715.5,1796.5 C 1721.03,1796.72 1726.36,1797.88 1731.5,1800C 1749.62,1809.14 1766.95,1819.47 1783.5,1831C 1809.21,1844.26 1836.54,1851.59 1865.5,1853C 1988.83,1853.33 2112.17,1853.67 2235.5,1854C 2246.04,1855.18 2254.87,1859.68 2262,1867.5C 2264.81,1871.45 2266.81,1875.79 2268,1880.5C 2268.33,1969.17 2268.67,2057.83 2269,2146.5C 2269.13,2189.1 2274.13,2231.1 2284,2272.5C 2288.53,2289.09 2295.2,2304.76 2304,2319.5C 2307.33,2329.55 2306.33,2339.21 2301,2348.5C 2297.35,2352.98 2293.52,2357.32 2289.5,2361.5C 2271.91,2371.15 2256.75,2368.15 2244,2352.5C 2231,2333.2 2221.67,2312.2 2216,2289.5C 2205.58,2245.46 2200.24,2200.79 2200,2155.5C 2199.5,2078.17 2199.33,2000.83 2199.5,1923.5C 2111.83,1923.5 2024.17,1923.5 1936.5,1923.5C 1936.67,2065.83 1936.5,2208.17 1936,2350.5C 1931.32,2367.32 1920.16,2375.66 1902.5,2375.5C 1883.02,2374.19 1871.52,2363.86 1868,2344.5C 1867.5,2203.83 1867.33,2063.17 1867.5,1922.5C 1832.38,1920.78 1798.38,1913.61 1765.5,1901C 1749.48,1894.57 1733.65,1887.74 1718,1880.5C 1666.3,1900.97 1612.8,1914.3 1557.5,1920.5C 1557.67,2062.5 1557.5,2204.5 1557,2346.5C 1553.75,2365.89 1542.25,2375.55 1522.5,2375.5C 1505.31,2374.15 1494.14,2365.15 1489,2348.5C 1488.5,2206.83 1488.33,2065.17 1488.5,1923.5C 1404.5,1923.5 1320.5,1923.5 1236.5,1923.5C 1236.67,2005.17 1236.5,2086.83 1236,2168.5C 1234,2213.51 1229,2258.18 1221,2302.5C 1217.58,2321.75 1211.58,2340.08 1203,2357.5C 1190.81,2370.01 1176.31,2373.51 1159.5,2368C 1142.84,2358.5 1136.67,2344.33 1141,2325.5C 1151.22,2299.06 1157.89,2271.73 1161,2243.5C 1163.99,2218.91 1165.99,2194.25 1167,2169.5C 1167.33,2073.5 1167.67,1977.5 1168,1881.5C 1170.72,1871.44 1176.55,1863.6 1185.5,1858C 1190.5,1855.42 1195.84,1854.08 1201.5,1854C 1312.5,1853.67 1423.5,1853.33 1534.5,1853C 1570.21,1850.99 1605.21,1844.99 1639.5,1835C 1647.41,1832.25 1655.08,1828.92 1662.5,1825C 1679.37,1813.9 1697.03,1804.4 1715.5,1796.5 Z"/></g>
</svg>
